PathFileType	4	(X/Y/Z)	Walking07.trc	
DataRate	CameraRate	NumFrames	NumMarkers	Units	OrigDataRate	OrigDataStartFrame	OrigNumFrames	
100.00	100.00	10	19	mm	100.00	388	98	
Frame#	Time	RPSI			LPSI			RASI			LASI			RTHI			RKNE			RHFB			RTUB			RSHN			RANK			RLCA			RSTL			RPCA			RCPG			RHEE			RP5M			RP1M			RD5M			RTOE			
		X1	Y1	Z1	X2	Y2	Z2	X3	Y3	Z3	X4	Y4	Z4	X5	Y5	Z5	X6	Y6	Z6	X7	Y7	Z7	X8	Y8	Z8	X9	Y9	Z9	X10	Y10	Z10	X11	Y11	Z11	X12	Y12	Z12	X13	Y13	Z13	X14	Y14	Z14	X15	Y15	Z15	X16	Y16	Z16	X17	Y17	Z17	X18	Y18	Z18	X19	Y19	Z19	

50	0.490	-59.18390	893.72601	133.29280	-53.76473	889.34753	41.37074	119.05870	843.42828	240.28581	149.73500	841.36719	1.23037	-50.74883	556.15808	247.87746	-94.70523	422.68109	219.31738	-120.36359	388.42358	216.70001	-70.38926	347.16742	165.63318	-121.59277	292.70880	155.02489	-336.18823	132.57552	170.42038	-358.25827	120.74299	162.73048	-344.91165	117.62067	98.22446	-362.46292	153.90688	126.74344	-392.04816	157.36877	124.47093	-390.57297	124.86675	118.63993	-301.95822	36.99548	188.56442	-250.86519	72.52993	118.03030	-274.58279	20.07005	195.98682	-230.57497	30.32905	158.64618 
51	0.500	-42.53363	892.98376	133.20953	-37.74240	889.20038	40.91425	136.50563	842.76410	238.60109	166.16028	841.43677	-0.07198	-31.44823	553.90735	248.31773	-74.67329	420.45847	221.12245	-101.08051	386.67569	219.05589	-51.84261	344.08133	168.01846	-105.27325	291.10617	157.18698	-326.36487	139.88452	172.65204	-349.03412	128.62219	164.30090	-334.90747	125.92587	99.95309	-351.64575	162.52469	128.72282	-380.11716	167.59937	126.24728	-380.01932	135.91780	120.27225	-298.35065	41.39976	189.12891	-245.86154	73.31878	116.98016	-272.10611	23.04833	196.32787	-229.00594	30.25765	158.40947 
52	0.510	-25.81259	892.27081	133.40527	-22.02719	889.60858	40.44052	153.87425	841.86597	236.43321	182.36351	842.11646	-1.72939	-10.69402	551.41461	248.92517	-53.10691	417.93353	223.38170	-80.21751	384.72986	221.86317	-31.40655	340.92902	171.26245	-87.15762	289.48962	159.69205	-314.28641	147.30710	174.74109	-337.24524	137.33913	166.15689	-322.48932	134.52423	101.87383	-337.89331	171.81311	130.96655	-364.77518	179.18927	128.58511	-366.85120	147.73615	121.95758	-293.79349	46.15147	189.93111	-239.73558	74.14848	117.51588	-269.10385	25.81285	196.34834	-227.01547	30.30797	158.25497 
53	0.520	-9.32537	891.62366	133.56067	-6.18594	890.25781	39.98440	171.05563	840.83917	233.95671	198.53880	843.46008	-3.68371	10.93139	548.85754	249.30630	-30.15473	415.31570	226.34654	-57.70988	382.65002	225.30424	-9.29805	337.67627	175.33931	-67.39850	287.66119	162.84036	-301.12149	155.01254	176.89317	-323.48477	146.64136	168.28127	-307.97003	143.49759	104.14588	-321.08359	181.94659	132.92805	-347.16846	191.00688	130.37805	-351.03998	160.44568	123.15466	-288.34741	51.48774	190.83961	-232.47000	75.44758	118.45034	-266.26508	28.26068	196.00974	-224.94835	30.38638	157.88544 
54	0.530	6.91808	890.95435	133.73180	9.45461	890.95001	39.75826	188.00893	839.96423	230.95770	214.64297	845.27014	-5.89489	32.81680	546.25677	250.21413	-6.04566	412.54385	229.90807	-33.90202	380.40723	229.22746	14.24622	334.32828	180.08351	-46.20505	285.90793	166.77913	-287.56815	164.07164	179.28314	-308.20984	157.25186	170.66357	-292.37488	153.67290	106.60227	-303.13504	192.84138	135.52126	-328.23413	203.61182	132.50272	-333.64539	173.94885	124.31975	-282.26398	58.77692	191.97392	-224.30086	78.20090	119.80298	-262.82172	32.47542	196.40860	-222.17598	31.66817	157.91037 
55	0.540	22.86763	890.38074	133.96619	24.97477	891.50098	39.72459	204.37746	839.34283	227.64716	230.24713	847.28491	-8.37128	55.15253	543.60516	251.85492	19.06058	409.56061	233.71239	-8.94304	378.04794	233.56786	38.35125	331.13541	185.15146	-24.15692	284.24258	171.15977	-271.07556	174.83896	182.02274	-291.68301	169.22705	173.04944	-275.65677	165.09171	109.02412	-283.87161	204.63205	138.36862	-307.81448	216.95081	135.59419	-315.29892	188.15802	127.13680	-274.18030	68.73385	193.61658	-214.70195	83.82767	121.52015	-257.28287	39.01744	197.82278	-217.52553	35.24357	159.12401 
56	0.550	38.51113	889.91089	134.22375	40.11760	892.23279	39.94810	220.39990	839.29669	224.72519	245.37096	849.27759	-10.89585	78.15563	540.91260	253.51065	45.01545	406.44843	237.59991	17.01916	375.69839	238.06590	62.94645	328.46356	190.10762	-1.52079	283.11020	175.66408	-252.12392	185.12869	183.91756	-273.52719	181.89586	175.26373	-256.98358	176.54340	111.29441	-262.67972	216.30367	140.58563	-285.48978	230.14987	138.83368	-295.54510	202.60333	130.26778	-263.44504	80.33171	195.86029	-203.11699	90.50686	123.90141	-249.74141	47.47565	199.63336	-211.45270	39.85454	161.45506 
57	0.560	53.93419	889.61194	134.46379	55.15055	893.18463	40.28170	236.57326	840.05347	221.47572	259.93271	851.10657	-13.39135	101.86896	538.63147	255.18518	71.35542	403.59918	241.43156	43.61938	373.54083	242.19385	88.56205	326.97650	194.77927	22.08202	282.59540	179.75761	-230.74542	194.59517	185.90730	-253.25197	194.04900	177.21951	-236.10365	187.53786	113.13566	-239.00891	227.18465	142.62303	-260.97510	242.69986	140.73213	-272.78668	216.44374	132.20775	-251.17374	91.84114	197.56905	-189.19313	97.25096	126.66966	-241.03769	57.78026	201.06505	-203.88150	44.72354	164.26312 
58	0.570	69.02901	889.45526	134.59164	70.60701	894.07129	40.48423	252.39491	840.55713	218.77130	274.18005	852.75372	-15.85775	125.82127	537.21686	256.51263	97.77660	401.61536	245.24654	70.77982	372.32877	246.62030	114.72780	326.09854	198.86911	46.61487	282.65744	183.71161	-206.73813	203.34663	187.62567	-230.21686	205.42339	178.87871	-213.00372	197.64525	114.45524	-213.07391	237.11943	144.37198	-234.02739	254.11203	141.54434	-247.17860	229.19391	133.60355	-236.64798	103.07034	198.82323	-172.96785	103.46638	129.35454	-229.50311	68.88752	202.13881	-193.89311	50.67924	167.22194 
59	0.580	83.85558	889.38770	134.60895	85.35240	895.28394	40.45810	267.80685	841.17090	216.64613	288.35672	854.24432	-18.09593	149.43756	537.38275	257.81592	124.14097	401.03848	248.89877	97.94328	372.69992	250.84326	141.29651	325.85895	202.79942	72.30960	283.34976	187.33824	-182.48486	211.87128	188.62027	-205.04413	216.00682	180.47580	-188.30836	205.92325	115.36989	-185.97919	245.70415	145.61281	-205.13440	263.70300	142.23062	-220.06143	239.98381	134.07188	-219.04602	113.74043	200.19322	-154.47639	109.16965	131.82080	-214.48721	79.77672	203.62860	-180.36011	57.93405	170.17314 
